<?xml version="1.0" standalone="no"?><!-- Generator: Gravit.io --><svg xmlns="http://www.w3.org/2000/svg" xmlns:xlink="http://www.w3.org/1999/xlink" style="isolation:isolate" viewBox="-417.5 -1396.5 1862.001 1175" width="1862.001" height="1175"><g id="side-profile-final"><g id="Layer 0"><path d=" M 866.725 -1198.832 L 911.878 -1222.557 L 926.419 -1228.679 L 939.429 -1234.036 L 957.031 -1238.628 L 970.042 -1240.159 L 980.756 -1240.924 L 988.409 -1240.924 L 996.062 -1240.159 L 1005.246 -1238.628 L 1025.144 -1233.271 L 1035.858 -1230.21 L 1054.225 -1224.087 L 1078.715 -1215.669 L 1118.511 -1201.893 L 1150.654 -1191.179 L 1165.96 -1186.587 L 1175.909 -1183.526 L 1190.45 -1179.7 L 1204.225 -1176.638 L 1216.47 -1174.342 L 1227.184 -1172.812 L 1237.899 -1171.281 L 1246.317 -1170.516 L 1262.389 -1169.751 L 1281.521 -1168.985 L 1299.889 -1168.22 L 1320.552 -1167.455 L 1332.031 -1167.455 L 1334.252 -1173.579 L 1354.225 -1228.679 L 1372.593 -1279.955 L 1385.702 -1314.912 C 1386.177 -1316.179 1387.108 -1316.764 1388.473 -1316.689 C 1395.197 -1317.119 1407.983 -1317.088 1426.738 -1316.689 C 1427.914 -1316.549 1428.531 -1315.98 1428.569 -1315.006 L 1432.287 -1257.761 L 1437.644 -1187.353 L 1441.47 -1134.547 L 1443.001 -1116.944 L 1443.001 -1116.179 C 1442.746 -1115.286 1442.243 -1114.769 1441.47 -1114.649 L 1434.582 -1114.649 L 1407.797 -1114.649 L 1309.838 -1112.353 L 1283.052 -1111.587 L 1265.45 -1110.822 L 1244.787 -1110.057 L 1214.94 -1108.526 L 1204.225 -1107.761 L 1171.317 -1106.23 L 1140.705 -1103.934 L 1107.031 -1101.638 L 1074.123 -1098.577 L 1025.144 -1093.985 L 989.174 -1090.924 L 963.154 -1088.628 L 948.613 -1087.098 L 939.429 -1086.332 L 924.889 -1085.567 L 909.582 -1085.567 L 890.45 -1085.567 L 868.256 -1085.567 L 832.287 -1085.567 L 812.389 -1085.567 L 775.654 -1085.567 L 735.858 -1087.098 L 686.878 -1088.628 L 678.46 -1089.393 L 670.042 -1090.159 L 659.327 -1091.689 L 645.552 -1094.751 L 631.776 -1098.577 L 620.297 -1102.404 L 613.409 -1105.465 L 609.582 -1106.23 L 606.521 -1106.995 L 603.46 -1107.761 L 599.633 -1108.526 L 595.042 -1110.057 L 590.45 -1111.587 L 585.093 -1113.118 L 581.266 -1114.649 L 575.909 -1116.944 L 568.256 -1120.006 L 563.664 -1122.302 L 559.838 -1124.598 L 554.48 -1127.659 L 549.123 -1131.485 L 546.827 -1133.781 L 545.297 -1135.312 L 543.766 -1137.608 L 543.001 -1139.138 L 543.001 -1140.669 L 543.001 -1142.2 L 544.531 -1144.495 L 546.062 -1146.026 L 548.358 -1148.322 L 551.419 -1150.618 L 556.776 -1154.444 L 562.133 -1157.506 L 568.256 -1160.567 L 573.613 -1162.863 L 578.97 -1165.159 L 585.093 -1167.455 L 590.45 -1168.985 L 598.103 -1171.281 L 605.756 -1173.577 L 612.644 -1175.108 L 619.531 -1176.638 L 637.899 -1179.7 L 647.848 -1181.23 L 653.97 -1181.995 L 664.684 -1183.526 L 674.633 -1184.291 L 686.878 -1185.822 L 705.246 -1187.353 L 727.44 -1188.883 L 738.919 -1189.649 L 756.521 -1190.414 L 778.715 -1191.179 L 795.552 -1191.944 L 810.858 -1192.71 L 833.052 -1193.475 L 849.123 -1193.475 L 852.95 -1194.24 L 856.776 -1195.006 L 859.838 -1195.771 L 862.133 -1196.536 L 866.725 -1198.832 Z " fill="none" vector-effect="non-scaling-stroke" stroke-width="1" stroke="rgb(255,255,255)" stroke-opacity="100" stroke-linejoin="miter" stroke-linecap="square" stroke-miterlimit="3"/><line x1="1416.215" y1="-1316.689" x2="1407.797" y2="-1114.649" vector-effect="non-scaling-stroke" stroke-width="0.5" stroke="rgb(255,255,255)" stroke-opacity="100" stroke-linejoin="miter" stroke-linecap="square" stroke-miterlimit="3"/><path d=" M 937.133 -1126.128 L 940.96 -1115.414 L 960.093 -1118.475 L 968.511 -1118.475" fill="none" vector-effect="non-scaling-stroke" stroke-width="0.5" stroke="rgb(255,255,255)" stroke-opacity="100" stroke-linejoin="miter" stroke-linecap="square" stroke-miterlimit="3"/><path d=" M 866.725 -1198.832 L 870.552 -1196.751 C 871.932 -1195.92 874.883 -1194.864 876.628 -1195.006 C 897.683 -1193.899 932.407 -1193.884 980.756 -1193.475 L 989.94 -1193.475 C 992.427 -1193.794 994.476 -1194.552 996.062 -1195.771 L 1032.031 -1230.975" fill="none" vector-effect="non-scaling-stroke" stroke-width="1" stroke="rgb(255,255,255)" stroke-opacity="100" stroke-linejoin="miter" stroke-linecap="square" stroke-miterlimit="3"/><path d=" M 1154.442 -1176.256 L 1154.825 -1176.256 L 1154.825 -1176.217 L 1154.442 -1176.256 L 989.901 -1193.092 L 989.519 -1193.131 L 989.519 -1193.475 L 992.235 -1193.475 L 1154.442 -1176.256 Z " fill="rgb(255,255,255)"/></g><line x1="612.644" y1="-1105.465" x2="612.644" y2="-1175.108" vector-effect="non-scaling-stroke" stroke-width="1" stroke="rgb(255,255,255)" stroke-opacity="100" stroke-linejoin="miter" stroke-linecap="square" stroke-miterlimit="3"/><path d=" M 912.644 -1140.669 C 909.923 -1134.225 909.676 -1128.351 911.878 -1123.067" fill="none" vector-effect="non-scaling-stroke" stroke-width="0.5" stroke="rgb(255,255,255)" stroke-opacity="100" stroke-linejoin="miter" stroke-linecap="square" stroke-miterlimit="3"/><path d=" M 612.644 -1149.087 L 630.748 -1149.087 C 631.386 -1148.967 631.752 -1148.689 631.776 -1148.322 L 631.776 -1142.2 C 631.258 -1140.884 630.501 -1140.111 629.48 -1139.904 L 612.644 -1139.904 L 612.644 -1149.087 Z " fill="none" vector-effect="non-scaling-stroke" stroke-width="1" stroke="rgb(255,255,255)" stroke-opacity="100" stroke-linejoin="miter" stroke-linecap="square" stroke-miterlimit="3"/><path d=" M 961.715 -1131.103 L 962.098 -1131.141 L 962.182 -1130.383 L 961.799 -1130.337 L 954.797 -1129.58 L 950.978 -1128.814 L 941.794 -1127.284 L 930.307 -1124.988 L 919.577 -1123.45 L 911.128 -1122.684 L 894.276 -1122.684 L 878.955 -1122.684 L 866.695 -1123.45 L 859.784 -1124.215 L 851.35 -1125.753 L 847.524 -1126.518 L 842.909 -1127.284 L 840.559 -1128.072 L 838.891 -1128.906 L 838.394 -1129.893 L 823.44 -1102.22 L 823.095 -1102.021 L 822.582 -1102.251 L 822.766 -1102.587 L 838.424 -1131.547 L 839.457 -1129.473 L 840.85 -1128.776 L 843.093 -1128.034 L 847.662 -1127.268 L 851.488 -1126.503 L 859.891 -1124.98 L 866.756 -1124.215 L 878.985 -1123.45 L 894.276 -1123.45 L 911.098 -1123.45 L 919.485 -1124.215 L 930.184 -1125.738 L 941.656 -1128.034 L 950.84 -1129.564 L 954.674 -1130.33 L 961.715 -1131.103 Z " fill="rgb(255,255,255)" vector-effect="non-scaling-stroke" stroke-width="0.1" stroke="rgb(255,255,255)" stroke-linejoin="miter" stroke-linecap="square" stroke-miterlimit="3"/><path d=" M 812.741 -1097.965 L 812.894 -1097.613 L 812.389 -1097.307 L 812.037 -1097.659 C 811.983 -1097.797 811.952 -1097.934 811.952 -1098.087 C 811.968 -1098.37 812.059 -1098.654 812.22 -1098.891 C 812.404 -1099.166 812.626 -1099.419 812.878 -1099.633 C 813.184 -1099.909 813.521 -1100.154 813.873 -1100.376 C 814.294 -1100.636 814.738 -1100.873 815.19 -1101.08 C 816.307 -1101.585 817.47 -1101.975 818.672 -1102.243 C 820.126 -1102.572 821.603 -1102.756 823.095 -1102.786 L 823.478 -1102.794 L 823.103 -1102.243 L 823.11 -1102.021 C 821.672 -1101.99 820.241 -1101.814 818.84 -1101.493 C 817.692 -1101.24 816.575 -1100.873 815.503 -1100.383 C 815.082 -1100.192 814.669 -1099.97 814.279 -1099.725 C 813.957 -1099.526 813.659 -1099.304 813.383 -1099.059 C 813.177 -1098.883 813.001 -1098.684 812.855 -1098.462 C 812.771 -1098.348 812.725 -1098.21 812.718 -1098.064 C 812.718 -1098.026 812.725 -1097.995 812.741 -1097.965 Z " fill="rgb(255,255,255)" vector-effect="non-scaling-stroke" stroke-width="0.1" stroke="rgb(255,255,255)" stroke-linejoin="miter" stroke-linecap="square" stroke-miterlimit="3"/><path d=" M 838.753 -1130.552 L 838.577 -1130.207 L 837.896 -1130.552 L 838.065 -1130.888 L 838.876 -1132.511 L 841.279 -1134.11 L 844.386 -1135.664 L 849.016 -1137.21 L 855.177 -1138.748 L 861.322 -1139.521 L 876.644 -1141.052 L 888.904 -1141.817 L 903.475 -1141.817 L 912.69 -1141.052 L 922.662 -1139.513 L 933.391 -1137.217 L 948.697 -1133.391 L 952.516 -1132.626 L 956.327 -1131.86 L 961.998 -1131.072 L 974.915 -1107.705 L 978.07 -1101.998 L 1006.011 -1099.044 C 1006.019 -1099.044 1006.034 -1099.036 1006.049 -1099.036 C 1006.34 -1098.975 1006.616 -1098.837 1006.845 -1098.646 C 1007.052 -1098.447 1007.167 -1098.172 1007.159 -1097.888 C 1007.159 -1097.881 1007.159 -1097.881 1007.159 -1097.873 L 1007.159 -1097.797 C 1007.151 -1097.521 1007.052 -1097.253 1006.883 -1097.039 C 1006.7 -1096.825 1006.455 -1096.679 1006.179 -1096.61 C 1000.355 -1096.136 994.531 -1095.6 988.723 -1095.011 C 983.182 -1094.452 977.649 -1093.87 972.108 -1093.274 C 965.496 -1092.554 958.883 -1091.873 952.256 -1091.23 C 946.088 -1090.626 939.904 -1090.143 933.713 -1089.776 C 923.457 -1089.194 913.202 -1088.735 902.94 -1088.399 C 894.177 -1088.115 885.414 -1087.97 876.644 -1087.955 C 871.945 -1087.955 867.238 -1088.008 862.531 -1088.123 C 858.406 -1088.223 854.281 -1088.383 850.156 -1088.613 C 846.598 -1088.804 843.054 -1089.064 839.511 -1089.401 C 836.526 -1089.684 833.549 -1090.044 830.588 -1090.488 C 828.169 -1090.848 825.774 -1091.299 823.394 -1091.858 C 821.534 -1092.279 819.705 -1092.822 817.914 -1093.488 C 817.195 -1093.763 816.498 -1094.069 815.809 -1094.406 C 815.228 -1094.697 814.669 -1095.034 814.133 -1095.401 C 813.682 -1095.715 813.261 -1096.075 812.878 -1096.473 C 812.542 -1096.817 812.266 -1097.207 812.044 -1097.636 L 812.044 -1098.08 L 812.557 -1098.325 L 812.733 -1097.988 C 812.917 -1097.628 813.146 -1097.291 813.429 -1097.001 C 813.774 -1096.641 814.156 -1096.312 814.57 -1096.029 C 815.075 -1095.684 815.603 -1095.37 816.154 -1095.095 C 816.812 -1094.766 817.493 -1094.467 818.182 -1094.207 C 819.942 -1093.557 821.741 -1093.013 823.562 -1092.6 C 825.927 -1092.057 828.307 -1091.598 830.702 -1091.245 C 833.649 -1090.802 836.61 -1090.442 839.58 -1090.166 C 843.116 -1089.83 846.651 -1089.569 850.195 -1089.37 C 854.312 -1089.149 858.429 -1088.988 862.554 -1088.888 C 867.246 -1088.774 871.945 -1088.72 876.644 -1088.72 C 885.406 -1088.735 894.162 -1088.881 902.917 -1089.164 C 913.172 -1089.501 923.419 -1089.952 933.667 -1090.541 C 939.85 -1090.909 946.019 -1091.391 952.187 -1091.995 C 958.799 -1092.638 965.419 -1093.319 972.031 -1094.039 C 977.565 -1094.636 983.105 -1095.21 988.646 -1095.768 C 994.44 -1096.358 1000.241 -1096.893 1006.049 -1097.368 C 1006.141 -1097.399 1006.225 -1097.452 1006.294 -1097.529 C 1006.355 -1097.613 1006.394 -1097.712 1006.394 -1097.819 C 1006.394 -1097.827 1006.394 -1097.827 1006.394 -1097.827 L 1006.394 -1097.904 C 1006.394 -1097.965 1006.371 -1098.034 1006.325 -1098.08 C 1006.202 -1098.179 1006.057 -1098.248 1005.904 -1098.286 L 977.588 -1101.279 L 961.516 -1130.368 L 956.205 -1131.11 L 952.363 -1131.876 L 948.529 -1132.641 L 933.223 -1136.467 L 922.524 -1138.763 L 912.598 -1140.286 L 903.445 -1141.052 L 888.934 -1141.052 L 876.705 -1140.286 L 861.414 -1138.756 L 855.315 -1137.998 L 849.23 -1136.475 L 844.677 -1134.96 L 841.662 -1133.452 L 839.473 -1131.99 L 838.753 -1130.552 Z " fill="rgb(255,255,255)" vector-effect="non-scaling-stroke" stroke-width="0.1" stroke="rgb(255,255,255)" stroke-linejoin="miter" stroke-linecap="square" stroke-miterlimit="3"/><path d=" M 1310.22 -1163.605 L 1310.197 -1163.223 L 1309.838 -1163.276 L 1309.455 -1163.651 C 1309.478 -1164.049 1309.654 -1164.424 1309.929 -1164.7 C 1310.266 -1165.029 1310.656 -1165.297 1311.093 -1165.473 C 1311.659 -1165.733 1312.256 -1165.932 1312.86 -1166.085 C 1313.664 -1166.284 1314.475 -1166.444 1315.287 -1166.567 C 1316.312 -1166.728 1317.345 -1166.85 1318.378 -1166.942 C 1319.626 -1167.057 1320.873 -1167.149 1322.128 -1167.21 C 1325.297 -1167.363 1328.473 -1167.432 1331.649 -1167.424 C 1335.743 -1167.416 1339.838 -1167.348 1343.932 -1167.21 C 1348.937 -1167.049 1353.942 -1166.835 1358.94 -1166.567 C 1364.848 -1166.253 1370.764 -1165.901 1376.664 -1165.503 C 1383.483 -1165.044 1390.302 -1164.547 1397.113 -1164.011 L 1397.496 -1163.98 L 1397.434 -1163.215 L 1397.052 -1163.245 C 1390.241 -1163.781 1383.429 -1164.279 1376.618 -1164.738 C 1370.71 -1165.136 1364.809 -1165.488 1358.901 -1165.802 C 1353.904 -1166.069 1348.906 -1166.284 1343.909 -1166.444 C 1339.822 -1166.582 1335.735 -1166.651 1331.649 -1166.659 C 1328.488 -1166.666 1325.327 -1166.598 1322.167 -1166.444 C 1320.927 -1166.383 1319.687 -1166.291 1318.447 -1166.184 C 1317.429 -1166.092 1316.412 -1165.962 1315.401 -1165.809 C 1314.613 -1165.694 1313.825 -1165.534 1313.052 -1165.342 C 1312.478 -1165.197 1311.927 -1165.013 1311.391 -1164.776 C 1311.047 -1164.631 1310.733 -1164.416 1310.473 -1164.156 C 1310.32 -1164.011 1310.235 -1163.812 1310.22 -1163.605 Z " fill="rgb(255,255,255)" vector-effect="non-scaling-stroke" stroke-width="0.1" stroke="rgb(255,255,255)" stroke-linejoin="miter" stroke-linecap="square" stroke-miterlimit="3"/><path d=" M 1397.052 -1164.011 L 1397.113 -1163.98 L 1397.113 -1163.605 L 1397.113 -1163.245 C 1390.302 -1162.71 1383.483 -1162.212 1376.664 -1161.753 C 1370.764 -1161.355 1364.848 -1161.003 1358.94 -1160.689 C 1353.942 -1160.422 1348.937 -1160.207 1343.932 -1160.047 C 1339.838 -1159.909 1335.743 -1159.84 1331.649 -1159.832 C 1328.473 -1159.825 1325.297 -1159.893 1322.128 -1160.047 C 1320.873 -1160.108 1319.626 -1160.2 1318.378 -1160.314 C 1317.345 -1160.406 1316.312 -1160.529 1315.287 -1160.689 C 1314.475 -1160.812 1313.664 -1160.973 1312.86 -1161.172 C 1312.256 -1161.325 1311.659 -1161.524 1311.093 -1161.784 C 1310.656 -1161.96 1310.266 -1162.228 1309.929 -1162.557 C 1309.654 -1162.832 1309.478 -1163.207 1309.455 -1163.605 L 1309.838 -1164.041 L 1310.197 -1164.034 L 1310.22 -1163.651 C 1310.235 -1163.444 1310.32 -1163.245 1310.473 -1163.1 C 1310.733 -1162.84 1311.047 -1162.626 1311.391 -1162.48 C 1311.927 -1162.243 1312.478 -1162.059 1313.052 -1161.914 C 1313.825 -1161.723 1314.613 -1161.562 1315.401 -1161.447 C 1316.412 -1161.294 1317.429 -1161.164 1318.447 -1161.072 C 1319.687 -1160.965 1320.927 -1160.873 1322.167 -1160.812 C 1325.327 -1160.659 1328.488 -1160.59 1331.649 -1160.598 C 1335.735 -1160.605 1339.822 -1160.674 1343.909 -1160.812 C 1348.906 -1160.973 1353.904 -1161.187 1358.901 -1161.455 C 1364.809 -1161.768 1370.71 -1162.12 1376.618 -1162.518 C 1383.429 -1162.978 1390.241 -1163.475 1397.052 -1164.011 Z " fill="rgb(255,255,255)" vector-effect="non-scaling-stroke" stroke-width="0.1" stroke="rgb(255,255,255)" stroke-linejoin="miter" stroke-linecap="square" stroke-miterlimit="3"/></g><g id="plane-outline-top-1 (5)"><path d=" M -416 -809 L -411.912 -810.363 L -399.647 -811.726 L -390.107 -813.088 L -372.391 -815.814 L -365.577 -1009.33 L -356.208 -1010.693 L -352.63 -1010.693 L -311.235 -1010.693 L -305.614 -1010.693 L -298.8 -1009.33 L -283.809 -822.628 L -232.023 -833.53 L -197.953 -841.707 L -72.577 -875.777 L -45.321 -883.953 L -4.437 -893.493 L 16.005 -897.581 L 35.084 -898.944 L 47.349 -909.847 L 58.877 -1202.168 L 65.065 -1390.912 L 67.791 -1392.274 L 77.153 -1393.637 L 93.343 -1395 L 104.245 -1395 L 131.501 -1395 L 156.203 -1395 L 175.432 -1395 L 186.353 -1393.637 L 189.14 -1391.936 L 206.795 -901.67 L 209.521 -897.581 L 213.609 -896.219 L 268.121 -893.493 L 319.907 -888.042 L 341.712 -883.953 L 366.242 -878.502 L 379.87 -873.051 L 390.772 -866.237 L 401.674 -855.335 L 412.577 -844.433 L 416.665 -843.07 L 445.284 -834.893 L 461.637 -828.079 L 472.54 -822.628 L 480.716 -815.814 L 483.442 -813.088 L 484.805 -810.363 L 484.805 -809" fill="none" vector-effect="non-scaling-stroke" stroke-width="1" stroke="rgb(255,255,255)" stroke-opacity="100" stroke-linejoin="miter" stroke-linecap="square" stroke-miterlimit="3"/><path d=" M -416 -809 L -411.912 -807.637 L -399.647 -806.274 L -390.107 -804.912 L -372.391 -802.186 L -365.577 -608.67 L -356.208 -607.307 L -352.63 -607.307 L -311.235 -607.307 L -305.614 -607.307 L -298.8 -608.67 L -283.809 -795.372 L -232.023 -784.47 L -197.953 -776.293 L -72.577 -742.223 L -45.321 -734.047 L -4.437 -724.507 L 16.005 -720.419 L 35.084 -719.056 L 47.349 -708.153 L 58.877 -415.832 L 65.065 -227.088 L 67.791 -225.726 L 77.153 -224.363 L 93.343 -223 L 104.245 -223 L 131.501 -223 L 156.203 -223 L 175.432 -223 L 186.353 -224.363 L 189.14 -226.064 L 206.795 -716.33 L 209.521 -720.419 L 213.609 -721.781 L 268.121 -724.507 L 319.907 -729.958 L 341.712 -734.047 L 366.242 -739.498 L 379.87 -744.949 L 390.772 -751.763 L 401.674 -762.665 L 412.577 -773.567 L 416.665 -774.93 L 445.284 -783.107 L 461.637 -789.921 L 472.54 -795.372 L 480.716 -802.186 L 483.442 -804.912 L 484.805 -807.637 L 484.805 -809" fill="none" vector-effect="non-scaling-stroke" stroke-width="1" stroke="rgb(255,255,255)" stroke-opacity="100" stroke-linejoin="miter" stroke-linecap="square" stroke-miterlimit="3"/><path d=" M 168.637 -809 L 168.637 -841.707 L 163.186 -859.423 L 159.098 -864.874 L 150.921 -873.051 L 145.47 -875.777 L 135.93 -879.865 L 125.028 -882.591 L 111.4 -883.953 L 95.047 -885.316 L 75.967 -885.316 L 47.349 -885.316 L 30.995 -885.316 L 24.181 -883.953 L 17.367 -882.591 L 11.916 -879.865 L 6.465 -875.777 L 2.377 -870.326 L -1.712 -862.149 L -4.437 -853.972 L -5.8 -848.521 L -5.8 -834.893 L -5.8 -809" fill="none" vector-effect="non-scaling-stroke" stroke-width="1" stroke="rgb(255,255,255)" stroke-opacity="100" stroke-linejoin="miter" stroke-linecap="square" stroke-miterlimit="3"/><path d=" M 168.637 -809 L 168.637 -776.293 L 163.186 -758.577 L 159.098 -753.126 L 150.921 -744.949 L 145.47 -742.223 L 135.93 -738.135 L 125.028 -735.409 L 111.4 -734.047 L 95.047 -732.684 L 75.967 -732.684 L 47.349 -732.684 L 30.995 -732.684 L 24.181 -734.047 L 17.367 -735.409 L 11.916 -738.135 L 6.465 -742.223 L 2.377 -747.674 L -1.712 -755.851 L -4.437 -764.028 L -5.8 -769.479 L -5.8 -783.107 L -5.8 -809" fill="none" vector-effect="non-scaling-stroke" stroke-width="1" stroke="rgb(255,255,255)" stroke-opacity="100" stroke-linejoin="miter" stroke-linecap="square" stroke-miterlimit="3"/><line x1="413.94" y1="-843.07" x2="413.94" y2="-774.93" vector-effect="non-scaling-stroke" stroke-width="1" stroke="rgb(255,255,255)" stroke-opacity="100" stroke-linejoin="miter" stroke-linecap="square" stroke-miterlimit="3"/><path d=" M 213.609 -896.219 L 171.363 -897.581 L 150.921 -898.944 L 50.074 -898.944 L 35.084 -898.944" fill="none" vector-effect="non-scaling-stroke" stroke-width="1" stroke="rgb(255,255,255)" stroke-opacity="100" stroke-linejoin="miter" stroke-linecap="square" stroke-miterlimit="3"/><path d=" M 213.609 -721.781 L 171.363 -720.419 L 150.921 -719.056 L 50.074 -719.056 L 35.084 -719.056" fill="none" vector-effect="non-scaling-stroke" stroke-width="1" stroke="rgb(255,255,255)" stroke-opacity="100" stroke-linejoin="miter" stroke-linecap="square" stroke-miterlimit="3"/><path d=" M -283.809 -822.628 L -289.26 -821.265 L -294.712 -818.54 L -298.8 -814.451 L -300.163 -813.088 L -300.163 -809" fill="none" vector-effect="non-scaling-stroke" stroke-width="1" stroke="rgb(255,255,255)" stroke-opacity="100" stroke-linejoin="miter" stroke-linecap="square" stroke-miterlimit="3"/><path d=" M -283.809 -795.372 L -289.26 -796.735 L -294.712 -799.46 L -298.8 -803.549 L -300.163 -804.912 L -300.163 -809" fill="none" vector-effect="non-scaling-stroke" stroke-width="1" stroke="rgb(255,255,255)" stroke-opacity="100" stroke-linejoin="miter" stroke-linecap="square" stroke-miterlimit="3"/><path d=" M -372.391 -815.814 L -341.047 -815.814 L -316.516 -813.088 L -309.702 -811.726 L -305.614 -810.363 L -304.251 -809" fill="none" vector-effect="non-scaling-stroke" stroke-width="1" stroke="rgb(255,255,255)" stroke-opacity="100" stroke-linejoin="miter" stroke-linecap="square" stroke-miterlimit="3"/><path d=" M -372.391 -802.186 L -341.047 -802.186 L -316.516 -804.912 L -309.702 -806.274 L -305.614 -807.637 L -304.251 -809" fill="none" vector-effect="non-scaling-stroke" stroke-width="1" stroke="rgb(255,255,255)" stroke-opacity="100" stroke-linejoin="miter" stroke-linecap="square" stroke-miterlimit="3"/><path d=" M 59.614 -1203.531 L 90.958 -1203.531 L 95.047 -1389.549 L 114.126 -1389.549 L 114.126 -1395" fill="none" vector-effect="non-scaling-stroke" stroke-width="0.5" stroke="rgb(255,255,255)" stroke-opacity="100" stroke-linejoin="miter" stroke-linecap="square" stroke-miterlimit="3"/><path d=" M 59.614 -414.469 L 90.958 -414.469 L 95.047 -228.451 L 114.126 -228.451 L 114.126 -223" fill="none" vector-effect="non-scaling-stroke" stroke-width="0.5" stroke="rgb(255,255,255)" stroke-opacity="100" stroke-linejoin="miter" stroke-linecap="square" stroke-miterlimit="3"/><path d=" M -345.135 -815.814 L -345.135 -1006.605 L -324.693 -1006.605 L -324.693 -1010.693" fill="none" vector-effect="non-scaling-stroke" stroke-width="0.5" stroke="rgb(255,255,255)" stroke-opacity="100" stroke-linejoin="miter" stroke-linecap="square" stroke-miterlimit="3"/><path d=" M -345.135 -802.186 L -345.135 -611.395 L -324.693 -611.395 L -324.693 -607.307" fill="none" vector-effect="non-scaling-stroke" stroke-width="0.5" stroke="rgb(255,255,255)" stroke-opacity="100" stroke-linejoin="miter" stroke-linecap="square" stroke-miterlimit="3"/><path d=" M -125.521 -846.504 L -126.162 -846.3 L -126.162 -846.3 L -125.521 -846.504 L -91.874 -858.06 L -64.604 -867.6 L -38.657 -875.082 L -16.825 -879.17 L 4.993 -883.258 L 14.533 -884.621 L 22.764 -885.998 L 30.995 -885.998 L 31.677 -885.998 L 31.677 -884.635 L 30.995 -884.635 L 22.873 -884.635 L 14.751 -883.286 L 5.211 -881.923 L -16.58 -877.835 L -38.357 -873.746 L -64.196 -866.946 L -91.438 -857.42 L -125.521 -846.504 Z " fill="rgb(255,255,255)"/><path d=" M -125.521 -771.496 L -126.162 -771.7 L -126.162 -771.7 L -125.521 -771.496 L -91.874 -759.94 L -64.604 -750.4 L -56.504 -748.064 L -38.657 -742.918 L -16.825 -738.83 L 4.993 -734.742 L 14.533 -733.379 L 22.764 -732.002 L 30.995 -732.002 L 31.677 -732.002 L 31.677 -733.365 L 30.995 -733.365 L 22.873 -733.365 L 14.751 -734.714 L 5.211 -736.077 L -16.58 -740.165 L -38.357 -744.254 L -64.196 -751.054 L -91.438 -760.58 L -125.521 -771.496 Z " fill="rgb(255,255,255)"/></g><g id="Front Profile (6)"><path d=" M 857 -554 L 879 -554 C 885.483 -553.742 890.827 -553.399 895 -553 C 917.887 -551.826 930.897 -539.149 934 -515 L 935 -503 C 935.828 -501.755 938.182 -499.402 940 -498 C 942.662 -494.588 943.682 -492.235 945 -489 C 945.672 -485.965 946.015 -483.955 946 -483 L 947 -453 L 947 -437 L 947 -433.437 C 946.872 -431.347 946.9 -428.033 950 -427 C 956.784 -425.97 971.106 -427.789 990 -429 L 1022 -431 L 1059 -433 L 1103 -436 L 1166 -439 L 1205 -441 L 1269 -445 L 1365 -450 L 1420 -453 L 1439 -454 C 1441.566 -453.593 1442.959 -451.856 1443 -448.969 L 1443 -439 C 1443.023 -436.366 1442.053 -435.003 1440 -435 L 1390 -432 L 1325 -429 L 1093 -414 L 1042 -410 L 965 -406 L 955 -405 L 944 -404 L 935 -403 L 927 -402 L 921 -401 L 913 -400 L 901 -399 L 876 -398 L 865 -398 L 857 -398" fill="none" vector-effect="non-scaling-stroke" stroke-width="1" stroke="rgb(255,255,255)" stroke-opacity="100" stroke-linejoin="miter" stroke-linecap="square" stroke-miterlimit="3"/><path d=" M 857 -554 L 835 -554 C 828.517 -553.742 823.173 -553.399 819 -553 C 796.113 -551.826 783.103 -539.149 780 -515 L 779 -503 C 778.172 -501.755 775.818 -499.402 774 -498 C 771.338 -494.588 770.318 -492.235 769 -489 C 768.328 -485.965 767.985 -483.955 768 -483 L 767 -453 L 767 -437 L 767 -433.437 C 767.128 -431.347 767.1 -428.033 764 -427 C 757.216 -425.97 742.894 -427.789 724 -429 L 692 -431 L 655 -433 L 611 -436 L 548 -439 L 509 -441 L 445 -445 L 349 -450 L 294 -453 L 275 -454 C 272.434 -453.593 271.041 -451.856 271 -448.969 L 271 -439 C 270.977 -436.366 271.947 -435.003 274 -435 L 324 -432 L 389 -429 L 621 -414 L 672 -410 L 749 -406 L 759 -405 L 770 -404 L 779 -403 L 787 -402 L 793 -401 L 801 -400 L 813 -399 L 838 -398 L 849 -398 L 857 -398" fill="none" vector-effect="non-scaling-stroke" stroke-width="1" stroke="rgb(255,255,255)" stroke-opacity="100" stroke-linejoin="miter" stroke-linecap="square" stroke-miterlimit="3"/><path d=" M 947 -436 C 946.46 -432.645 944.884 -431.011 944 -427 C 941.722 -413.329 933.276 -402.902 920 -401 L 920 -401" fill="none" vector-effect="non-scaling-stroke" stroke-width="1" stroke="rgb(255,255,255)" stroke-opacity="100" stroke-linejoin="miter" stroke-linecap="square" stroke-miterlimit="3"/><path d=" M 767 -436 C 767.54 -432.645 769.116 -431.011 770 -427 C 772.278 -413.329 780.724 -402.902 794 -401 L 794 -401" fill="none" vector-effect="non-scaling-stroke" stroke-width="1" stroke="rgb(255,255,255)" stroke-opacity="100" stroke-linejoin="miter" stroke-linecap="square" stroke-miterlimit="3"/><path d=" M 857 -630 L 858 -630 C 858.745 -629.838 859.938 -628.5 860 -625 L 860 -625 L 861 -597 L 861 -588 L 861 -580 L 862 -554" fill="none" vector-effect="non-scaling-stroke" stroke-width="1" stroke="rgb(255,255,255)" stroke-opacity="100" stroke-linejoin="miter" stroke-linecap="square" stroke-miterlimit="3"/><path d=" M 857 -630 L 856 -630 C 855.255 -629.838 854.063 -628.5 854 -625 L 854 -625 L 853 -597 L 853 -588 L 853 -580 L 852 -554" fill="none" vector-effect="non-scaling-stroke" stroke-width="1" stroke="rgb(255,255,255)" stroke-opacity="100" stroke-linejoin="miter" stroke-linecap="square" stroke-miterlimit="3"/><path d=" M 946 -481 L 1056 -481 C 1059.018 -480.564 1060.476 -479.023 1060.254 -476.496 C 1060.62 -474.046 1059.212 -472.537 1056 -472 L 947 -471" fill="none" vector-effect="non-scaling-stroke" stroke-width="1" stroke="rgb(255,255,255)" stroke-opacity="100" stroke-linejoin="miter" stroke-linecap="square" stroke-miterlimit="3"/><path d=" M 767 -481 L 657 -481 C 653.982 -480.564 652.524 -479.023 652.746 -476.496 C 652.38 -474.046 653.788 -472.537 657 -472 L 767 -471" fill="none" vector-effect="non-scaling-stroke" stroke-width="1" stroke="rgb(255,255,255)" stroke-opacity="100" stroke-linejoin="miter" stroke-linecap="square" stroke-miterlimit="3"/><path d=" M 858 -512 C 892.339 -511.596 917.683 -509.253 934 -505" fill="none" vector-effect="non-scaling-stroke" stroke-width="1" stroke="rgb(255,255,255)" stroke-opacity="100" stroke-linejoin="miter" stroke-linecap="square" stroke-miterlimit="3"/><path d=" M 857 -512 C 891.339 -511.596 917.683 -509.253 934 -505" fill="none" vector-effect="non-scaling-stroke" stroke-width="1" stroke="rgb(255,255,255)" stroke-opacity="100" stroke-linejoin="miter" stroke-linecap="square" stroke-miterlimit="3"/><path d=" M 856.5 -512 C 822.161 -511.596 795.817 -509.253 779.5 -505" fill="none" vector-effect="non-scaling-stroke" stroke-width="1" stroke="rgb(255,255,255)" stroke-opacity="100" stroke-linejoin="miter" stroke-linecap="square" stroke-miterlimit="3"/><path d=" M 822 -453.25 C 822 -472.429 837.459 -488 856.5 -488 C 875.541 -488 891 -472.429 891 -453.25 C 891 -434.071 875.541 -418.5 856.5 -418.5 C 837.459 -418.5 822 -434.071 822 -453.25 Z " fill="none" vector-effect="non-scaling-stroke" stroke-width="1" stroke="rgb(255,255,255)" stroke-opacity="100" stroke-linejoin="miter" stroke-linecap="square" stroke-miterlimit="3"/><path d=" M 821.471 -453.019 L 807.067 -453.019 C 805.609 -453.276 804.913 -453.952 805.009 -455.077 L 805.009 -460.221 C 805.352 -460.821 806.027 -461.154 807.067 -461.25 L 822.5 -461.25 C 822.054 -459.484 821.752 -456.699 821.471 -453.019 Z " fill="none" vector-effect="non-scaling-stroke" stroke-width="1" stroke="rgb(255,255,255)" stroke-opacity="100" stroke-linejoin="miter" stroke-linecap="square" stroke-miterlimit="3"/><path d=" M 891.429 -453.25 L 905.833 -453.25 C 907.291 -453.507 907.987 -454.183 907.891 -455.308 L 907.891 -460.452 C 907.548 -461.052 906.873 -461.385 905.833 -461.481 L 890.4 -461.481 C 890.846 -459.715 891.148 -456.93 891.429 -453.25 Z " fill="none" vector-effect="non-scaling-stroke" stroke-width="1" stroke="rgb(255,255,255)" stroke-opacity="100" stroke-linejoin="miter" stroke-linecap="square" stroke-miterlimit="3"/></g></svg>