<?xml version="1.0" standalone="no"?><!-- Generator: Gravit.io --><svg xmlns="http://www.w3.org/2000/svg" xmlns:xlink="http://www.w3.org/1999/xlink" style="isolation:isolate" viewBox="0 0 799 120" width="799" height="120"><path d="M 49.5 110 L 50 110 L 70.5 110 C 92.301 110 110 92.301 110 70.5 L 110 49.5 C 110 27.699 92.301 10 70.5 10 L 50 10 L 49.5 10 L 10 10 L 10 25 L 18.524 25 L 50 25 L 55 25 L 70.15 25 C 83.865 25 95 36.135 95 49.85 L 95 70.15 C 95 83.865 83.865 95 70.15 95 L 55 95 L 50 95 L 18.524 95 L 10 95 L 10 110 L 49.5 110 Z" style="stroke:none;fill:#FFFFFF;stroke-miterlimit:10;fill-rule:evenodd;"/><path d="M 172.176 67.5 L 208.894 110 L 228.894 110 L 142.5 10 L 122.5 10 L 159.217 52.5 L 122.5 52.5 L 122.5 67.5 L 172.176 67.5 Z" style="stroke:none;fill:#FFFFFF;stroke-miterlimit:10;"/><path d="M 452.176 67.5 L 488.894 110 L 508.894 110 L 422.5 10 L 402.5 10 L 439.217 52.5 L 402.5 52.5 L 402.5 67.5 L 452.176 67.5 Z" style="stroke:none;fill:#FFFFFF;stroke-miterlimit:10;"/><path d="M 728.6 10 L 748.6 10 C 770.677 10 788.6 27.923 788.6 50 L 788.6 70 C 788.6 92.077 770.677 110 748.6 110 L 728.6 110 C 706.523 110 688.6 92.077 688.6 70 L 688.6 50 C 688.6 27.923 706.523 10 728.6 10 Z M 727.236 25 L 749.964 25 C 763.762 25 774.964 36.202 774.964 50 L 774.964 70 C 774.964 83.798 763.762 95 749.964 95 L 727.236 95 C 713.438 95 702.236 83.798 702.236 70 L 702.236 50 C 702.236 36.202 713.438 25 727.236 25 Z" style="stroke:none;fill:#FFFFFF;stroke-miterlimit:10;fill-rule:evenodd;"/><path d="M 203.083 52.5 C 206.944 61.326 215.757 67.5 226 67.5 L 266 67.5 C 279.798 67.5 291 56.298 291 42.5 L 291 35 C 291 21.202 279.798 10 266 10 L 226 10 C 215.757 10 206.944 16.174 203.083 25 L 264.981 25 C 271.062 25 276 29.938 276 36.019 L 276 41.481 C 276 47.562 271.062 52.5 264.981 52.5 L 203.083 52.5 Z" style="stroke:none;fill:#FFFFFF;stroke-miterlimit:10;"/><rect x="201" y="10" width="29" height="15" transform="matrix(1,0,0,1,0,0)" fill="rgb(255,255,255)"/><g opacity="0"><rect x="201" y="52.5" width="25" height="15" transform="matrix(1,0,0,1,0,0)" /></g><rect x="207.738" y="52.5" width="31.5" height="15" transform="matrix(1,0,0.898,1,-53.901,0)" fill="rgb(255,255,255)"/><rect x="253.287" y="65" width="17.5" height="45" transform="matrix(1,0,0.898,1,-78.606,0)" fill="rgb(255,255,255)"/><path d="M 587.083 52.5 C 590.944 61.326 599.757 67.5 610 67.5 L 650 67.5 C 663.798 67.5 675 56.298 675 42.5 L 675 35 C 675 21.202 663.798 10 650 10 L 610 10 C 599.757 10 590.944 16.174 587.083 25 L 648.981 25 C 655.062 25 660 29.938 660 36.019 L 660 41.481 C 660 47.562 655.062 52.5 648.981 52.5 L 587.083 52.5 Z" style="stroke:none;fill:#FFFFFF;stroke-miterlimit:10;"/><rect x="585" y="10" width="29" height="15" transform="matrix(1,0,0,1,0,0)" fill="rgb(255,255,255)"/><g opacity="0"><rect x="576.5" y="52.5" width="25" height="15" transform="matrix(1,0,0,1,0,0)" /></g><rect x="591.738" y="52.5" width="31.5" height="15" transform="matrix(1,0,0.898,1,-53.901,0)" fill="rgb(255,255,255)"/><rect x="635.467" y="65" width="17.5" height="45" transform="matrix(1,0,0.898,1,-78.606,0)" fill="rgb(255,255,255)"/><path d=" M 305 10 L 320 10 L 320 110 L 305 110 L 305 112.5 L 305 10 Z " fill="rgb(255,255,255)"/><path d=" M 305 10 L 305 110 L 305 112.5 L 305 10 Z " fill="rgb(255,255,255)"/><path d=" M 305 104.648 L 390 10 L 369.806 10 L 305 82.162 L 305 104.648 Z " fill="rgb(255,255,255)"/><path d=" M 324.952 60.054 L 369.806 110 L 390 110 L 335.059 48.823 L 324.952 60.054 Z " fill="rgb(255,255,255)"/><rect x="481" y="10" width="90" height="15" transform="matrix(1,0,0,1,0,0)" fill="rgb(255,255,255)"/><path d=" M 494.808 67.5 L 571 67.5 L 571 52.5 L 482.115 52.5 L 494.808 67.5 Z " fill="rgb(255,255,255)"/><rect x="532.5" y="95" width="38.5" height="15" transform="matrix(1,0,0,1,0,0)" fill="rgb(255,255,255)"/><rect x="522.338" y="95" width="20" height="15" transform="matrix(1,0,0.898,1,-92.081,0)" fill="rgb(255,255,255)"/></svg>