<svg class="osh-logo-image" xmlns="http://www.w3.org/2000/svg" x="0px" y="0px" width="140px" height="38.742px" viewBox="0 0 140 38.742">
      <g>
        <path fill-rule="evenodd" clip-rule="evenodd" fill="#0A3AA1" d="M134.042,16.383h-4.766c0.091-1.838,0.405-3.276,2.607-3.276   c1.844,0,2.158,1.479,2.158,2.917V16.383z M140,17.555c0-5.06-2.201-8.916-8.289-8.916c-7.295,0-9.583,3.98-9.583,10.948   c0,6.343,2.634,10.201,10.663,10.201c1.468,0,4.748-0.249,6.389-0.787l-0.259-5.309c-1.209,0.332-3.496,0.705-5.007,0.705   c-4.231,0-4.62-1.203-4.62-3.443H140V17.555z"></path>
        <path fill-rule="evenodd" clip-rule="evenodd" fill="#0A3AA1" d="M108.724,24.243v-9.402C109.26,14.421,110.167,14,111.2,14   c1.567,0,3.48,0.742,3.48,5.112c0,3.53-1.848,5.1-4.018,5.293C110.088,24.457,109.219,24.411,108.724,24.243 M93.234,23.726   c-0.456,0.428-1.331,0.7-1.901,0.7c-1.141,0-1.674-0.622-1.674-1.865c0-0.194,0.039-0.776,0.382-1.127   c0.532-0.544,1.748-0.582,3.193-0.582V23.726z M107.722,10.348h-0.04l-0.358-1.71h-4.641v15.606h-3.092V14.224   c0-4.168-3.65-5.586-7.895-5.586c-1.706,0-4.523,0.251-6.864,0.834l0.12,5.109c2.658-0.584,5.396-0.793,6.348-0.793   c1.23,0,2.023,0.604,2.023,1.813v1.125c-2.937,0-6.744,0.417-8.371,2.125c-1.151,1.21-1.547,2.877-1.547,4.461   c0,4.252,2.688,6.352,6.098,6.424c0.659,0.014,5.053,0.014,13.18,0v8.987h6.347v-9.075c0.795,0.125,2.023,0.168,2.816,0.168   c5.754,0,8.793-3.752,8.793-10.965c0-5.627-1.771-10.213-7.443-10.213C111.41,8.638,109.229,9.056,107.722,10.348"></path>
        <path fill-rule="evenodd" clip-rule="evenodd" fill="#0A3AA1" d="M70.438,9.563h-0.04V0.001h-6.354v29.787h6.354V15.435   c0.874-0.612,3.177-1.033,4.051-1.033c0.794,0,1.112,0.307,1.112,1.07v14.316h6.354V13.731c0-3.901-3.257-5.048-6.435-5.048   C74.09,8.684,71.43,9.028,70.438,9.563"></path>
        <path fill-rule="evenodd" clip-rule="evenodd" fill="#0A3AA1" d="M53.953,15.808c-0.633-0.291-1.011-0.459-1.011-1.042   c0-0.625,0.464-0.834,2.065-0.834c0.547,0,3.371,0.085,5.1,0.376l0.253-5.294c-1.728-0.292-4.384-0.375-5.521-0.375   c-5.1,0-8.767,1.667-8.767,6.253c0,3.126,1.728,5.002,3.878,5.919l4.623,1.805c0.759,0.333,1.096,0.667,1.096,1.083   c0,0.668-0.42,0.639-1.938,0.639c-1.139,0-3.49,0-5.78,0.002v-0.002h-4.759v-10.1c0-4.253-3.625-5.502-6.997-5.502   c-2.192,0-4.173,0.75-5.522,1.708H30.63l-0.379-1.708h-4.932v20.841h6.745v-13.81c0.927-0.668,2.107-1.126,3.035-1.126   c0.843,0,1.18,0.334,1.18,1.167v13.769h5.03l15.547,0.01c3.32-0.585,5.6-2.416,5.6-6.179c0-2.875-2.221-4.682-4.202-5.599   L53.953,15.808z"></path>
        <path fill-rule="evenodd" clip-rule="evenodd" fill="#0A3AA1" d="M11.957,23.573c-3.135,0-4.474-1.586-4.474-8.658   s1.338-8.7,4.474-8.7c3.093,0,4.473,1.585,4.473,8.7C16.43,22.029,15.05,23.573,11.957,23.573 M11.957,0C3.261,0,0,4.714,0,14.915   c0,10.2,3.261,14.873,11.957,14.873c8.653,0,11.873-4.673,11.873-14.873C23.83,4.714,20.61,0,11.957,0"></path>
        <path fill="#3D4647" d="M42.841,33.928h0.508l1.939,4.749h-0.642l-0.562-1.392h-1.993l-0.555,1.392h-0.642L42.841,33.928z    M43.951,36.817l-0.856-2.193l-0.882,2.193H43.951z"></path>
        <path fill="#3D4647" d="M48.745,38.677v-4.749h1.979c0.209,0,0.402,0.044,0.579,0.131c0.175,0.087,0.328,0.202,0.455,0.348   c0.127,0.145,0.227,0.308,0.297,0.488c0.072,0.181,0.107,0.364,0.107,0.552c0,0.195-0.033,0.385-0.1,0.567   c-0.067,0.184-0.162,0.347-0.284,0.488c-0.123,0.144-0.271,0.257-0.442,0.342c-0.171,0.085-0.361,0.127-0.571,0.127h-1.417v1.706   H48.745z M49.347,36.437h1.384c0.125,0,0.237-0.026,0.338-0.078c0.101-0.051,0.186-0.122,0.257-0.214   c0.072-0.091,0.127-0.196,0.168-0.317c0.039-0.12,0.06-0.248,0.06-0.381c0-0.138-0.023-0.268-0.069-0.388   c-0.048-0.12-0.11-0.226-0.188-0.314c-0.078-0.09-0.169-0.158-0.274-0.207c-0.105-0.05-0.215-0.074-0.331-0.074h-1.344V36.437z"></path>
        <polygon fill="#3D4647" points="57.004,34.463 55.365,34.463 55.365,38.676 54.764,38.676 54.764,34.463 53.125,34.463    53.125,33.928 57.004,33.928  "></polygon>
        <path fill="#3D4647" d="M57.906,36.269c0-0.285,0.051-0.569,0.15-0.853s0.247-0.537,0.441-0.763   c0.193-0.225,0.432-0.406,0.712-0.545c0.281-0.138,0.6-0.207,0.956-0.207c0.424,0,0.787,0.096,1.09,0.287   c0.304,0.192,0.529,0.441,0.676,0.75l-0.475,0.307c-0.07-0.151-0.156-0.278-0.258-0.381c-0.1-0.103-0.209-0.186-0.328-0.247   c-0.117-0.063-0.239-0.107-0.363-0.134c-0.125-0.026-0.248-0.04-0.368-0.04c-0.263,0-0.496,0.055-0.699,0.164   c-0.203,0.108-0.373,0.251-0.511,0.428c-0.139,0.176-0.242,0.374-0.312,0.595c-0.069,0.222-0.104,0.442-0.104,0.665   c0,0.25,0.041,0.487,0.124,0.712c0.082,0.226,0.197,0.425,0.344,0.599c0.148,0.175,0.321,0.313,0.521,0.415   c0.201,0.103,0.42,0.153,0.656,0.153c0.125,0,0.252-0.015,0.384-0.046s0.258-0.082,0.378-0.15c0.121-0.069,0.233-0.157,0.338-0.261   c0.104-0.104,0.191-0.231,0.258-0.378l0.502,0.273c-0.076,0.179-0.183,0.335-0.318,0.472s-0.289,0.251-0.462,0.344   c-0.171,0.094-0.353,0.165-0.544,0.215c-0.192,0.049-0.38,0.073-0.563,0.073c-0.326,0-0.624-0.071-0.896-0.214   c-0.271-0.143-0.507-0.328-0.705-0.559c-0.198-0.229-0.352-0.49-0.461-0.782S57.906,36.571,57.906,36.269"></path>
        <path fill="#3D4647" d="M69.447,37.452c0,0.184-0.036,0.351-0.109,0.502c-0.074,0.151-0.174,0.28-0.301,0.387   c-0.127,0.107-0.274,0.19-0.441,0.248c-0.168,0.058-0.348,0.087-0.539,0.087h-2.254v-4.748h2.361c0.164,0,0.314,0.037,0.447,0.107   c0.135,0.071,0.248,0.163,0.342,0.277s0.166,0.243,0.217,0.388c0.051,0.146,0.077,0.291,0.077,0.438   c0,0.236-0.059,0.454-0.177,0.655c-0.118,0.2-0.287,0.35-0.506,0.448c0.272,0.08,0.488,0.229,0.646,0.444   C69.369,36.902,69.447,37.157,69.447,37.452 M66.405,34.449v1.585h1.511c0.107,0,0.205-0.021,0.295-0.063   c0.088-0.043,0.166-0.1,0.23-0.171s0.115-0.155,0.154-0.252c0.037-0.095,0.057-0.196,0.057-0.304c0-0.111-0.018-0.216-0.054-0.314   c-0.036-0.098-0.084-0.182-0.144-0.254c-0.061-0.071-0.135-0.127-0.221-0.167c-0.088-0.039-0.18-0.061-0.277-0.061H66.405z    M68.84,37.346c0-0.107-0.02-0.211-0.058-0.312s-0.089-0.188-0.153-0.264s-0.143-0.137-0.23-0.181   c-0.09-0.044-0.188-0.067-0.295-0.067h-1.698v1.632h1.651c0.111,0,0.215-0.022,0.308-0.067c0.095-0.044,0.176-0.104,0.247-0.177   c0.072-0.073,0.128-0.159,0.168-0.257C68.819,37.555,68.84,37.452,68.84,37.346"></path>
        <path fill="#3D4647" d="M71.941,38.742c-0.365,0-0.642-0.122-0.829-0.367c-0.187-0.245-0.28-0.609-0.28-1.097v-2.094h0.588v1.98   c0,0.713,0.248,1.069,0.742,1.069c0.24,0,0.467-0.077,0.68-0.23c0.211-0.154,0.368-0.364,0.471-0.632v-2.188h0.589v2.77   c0,0.138,0.063,0.209,0.187,0.214v0.509c-0.066,0.008-0.119,0.014-0.156,0.016c-0.039,0.003-0.075,0.004-0.111,0.004   c-0.115,0-0.212-0.035-0.291-0.104c-0.078-0.068-0.118-0.154-0.123-0.257l-0.014-0.408c-0.156,0.264-0.361,0.465-0.615,0.605   S72.245,38.742,71.941,38.742"></path>
        <path fill="#3D4647" d="M76.775,38.742c-0.279,0-0.557-0.043-0.828-0.13c-0.272-0.086-0.506-0.212-0.702-0.378l0.254-0.395   c0.204,0.156,0.411,0.273,0.615,0.352c0.204,0.077,0.421,0.116,0.648,0.116c0.255,0,0.456-0.05,0.606-0.15   c0.148-0.101,0.223-0.241,0.223-0.424c0-0.085-0.02-0.158-0.06-0.218c-0.04-0.061-0.101-0.113-0.181-0.157s-0.183-0.084-0.308-0.12   s-0.271-0.073-0.435-0.114c-0.21-0.053-0.391-0.104-0.542-0.153c-0.151-0.05-0.276-0.106-0.374-0.174s-0.17-0.146-0.215-0.241   c-0.045-0.094-0.066-0.208-0.066-0.348c0-0.174,0.035-0.328,0.104-0.465c0.068-0.136,0.164-0.249,0.284-0.34   c0.12-0.092,0.263-0.161,0.425-0.208c0.162-0.048,0.338-0.07,0.525-0.07c0.264,0,0.508,0.043,0.734,0.127   c0.229,0.085,0.42,0.196,0.576,0.335l-0.268,0.354c-0.147-0.13-0.312-0.227-0.495-0.292c-0.183-0.063-0.37-0.097-0.562-0.097   c-0.215,0-0.396,0.046-0.545,0.138c-0.149,0.091-0.225,0.237-0.225,0.438c0,0.08,0.016,0.147,0.045,0.201   c0.027,0.054,0.076,0.101,0.143,0.14c0.066,0.04,0.152,0.076,0.258,0.107s0.23,0.064,0.377,0.101   c0.232,0.053,0.434,0.107,0.606,0.163c0.171,0.057,0.313,0.122,0.428,0.198c0.114,0.075,0.198,0.164,0.254,0.267   s0.083,0.228,0.083,0.375c0,0.325-0.125,0.584-0.373,0.775C77.535,38.646,77.199,38.742,76.775,38.742"></path>
        <path fill="#3D4647" d="M79.524,33.794h0.589v0.736h-0.589V33.794z M79.524,35.185h0.589v3.491h-0.589V35.185z"></path>
        <path fill="#3D4647" d="M84.761,38.676h-0.588v-1.952c0-0.375-0.059-0.646-0.172-0.816c-0.113-0.169-0.286-0.254-0.518-0.254   c-0.12,0-0.24,0.023-0.361,0.07c-0.12,0.047-0.233,0.11-0.341,0.19c-0.106,0.08-0.201,0.176-0.28,0.288   c-0.08,0.111-0.141,0.234-0.181,0.367v2.106h-0.589v-3.491h0.534v0.75c0.139-0.246,0.338-0.441,0.599-0.589   c0.262-0.147,0.546-0.221,0.854-0.221c0.2,0,0.367,0.036,0.502,0.11c0.133,0.073,0.24,0.177,0.32,0.308   c0.08,0.132,0.137,0.287,0.17,0.465s0.051,0.373,0.051,0.582V38.676z"></path>
        <path fill="#3D4647" d="M87.89,38.742c-0.263,0-0.504-0.047-0.722-0.143c-0.219-0.097-0.405-0.227-0.562-0.392   c-0.157-0.165-0.278-0.358-0.365-0.579c-0.086-0.221-0.13-0.453-0.13-0.699c0-0.244,0.044-0.476,0.13-0.694   c0.087-0.219,0.21-0.41,0.368-0.575s0.347-0.295,0.564-0.392c0.219-0.096,0.459-0.144,0.723-0.144s0.503,0.049,0.72,0.147   c0.215,0.098,0.399,0.229,0.551,0.391c0.152,0.163,0.269,0.353,0.351,0.568c0.083,0.217,0.124,0.44,0.124,0.672   c0,0.049-0.001,0.094-0.003,0.135c-0.002,0.039-0.006,0.071-0.01,0.093h-2.896c0.013,0.174,0.054,0.332,0.12,0.475   c0.067,0.144,0.153,0.266,0.261,0.369c0.107,0.103,0.229,0.183,0.364,0.24s0.279,0.086,0.432,0.086   c0.106,0,0.211-0.015,0.313-0.043c0.104-0.028,0.199-0.067,0.288-0.117c0.089-0.049,0.168-0.109,0.237-0.181   s0.122-0.151,0.157-0.24l0.508,0.14c-0.059,0.13-0.137,0.248-0.237,0.355c-0.101,0.106-0.217,0.199-0.347,0.276   c-0.132,0.079-0.278,0.14-0.438,0.185S88.063,38.742,87.89,38.742 M89.087,36.696c-0.014-0.164-0.055-0.316-0.124-0.458   c-0.068-0.141-0.155-0.26-0.261-0.357c-0.104-0.098-0.227-0.176-0.364-0.231c-0.139-0.055-0.285-0.084-0.441-0.084   s-0.303,0.029-0.441,0.084c-0.138,0.056-0.26,0.135-0.364,0.235c-0.104,0.1-0.189,0.219-0.254,0.356   c-0.065,0.139-0.104,0.291-0.117,0.455H89.087z"></path>
        <path fill="#3D4647" d="M92.189,38.742c-0.28,0-0.558-0.043-0.829-0.13c-0.271-0.086-0.506-0.212-0.701-0.378l0.254-0.395   c0.205,0.156,0.41,0.273,0.615,0.352c0.204,0.077,0.421,0.116,0.648,0.116c0.254,0,0.455-0.05,0.604-0.15s0.224-0.241,0.224-0.424   c0-0.085-0.02-0.158-0.06-0.218c-0.04-0.061-0.101-0.113-0.181-0.157s-0.183-0.084-0.307-0.12   c-0.125-0.036-0.271-0.073-0.436-0.114c-0.21-0.053-0.391-0.104-0.542-0.153c-0.151-0.05-0.276-0.106-0.374-0.174   s-0.17-0.146-0.214-0.241c-0.045-0.094-0.067-0.208-0.067-0.348c0-0.174,0.035-0.328,0.104-0.465   c0.068-0.136,0.164-0.249,0.284-0.34c0.119-0.092,0.262-0.161,0.424-0.208c0.163-0.048,0.338-0.07,0.525-0.07   c0.263,0,0.508,0.043,0.735,0.127c0.228,0.085,0.419,0.196,0.575,0.335l-0.268,0.354c-0.147-0.13-0.312-0.227-0.495-0.292   c-0.183-0.063-0.369-0.097-0.562-0.097c-0.214,0-0.396,0.046-0.544,0.138c-0.15,0.091-0.225,0.237-0.225,0.438   c0,0.08,0.015,0.147,0.044,0.201c0.028,0.054,0.076,0.101,0.143,0.14c0.066,0.04,0.153,0.076,0.258,0.107   c0.105,0.031,0.231,0.064,0.378,0.101c0.231,0.053,0.434,0.107,0.605,0.163c0.172,0.057,0.314,0.122,0.428,0.198   c0.114,0.075,0.198,0.164,0.254,0.267s0.084,0.228,0.084,0.375c0,0.325-0.125,0.584-0.375,0.775   C92.95,38.646,92.613,38.742,92.189,38.742"></path>
        <path fill="#3D4647" d="M96.161,38.742c-0.281,0-0.558-0.043-0.829-0.13c-0.272-0.086-0.506-0.212-0.702-0.378l0.254-0.395   c0.205,0.156,0.41,0.273,0.615,0.352c0.205,0.077,0.422,0.116,0.649,0.116c0.254,0,0.456-0.05,0.605-0.15   c0.148-0.101,0.224-0.241,0.224-0.424c0-0.085-0.021-0.158-0.061-0.218c-0.04-0.061-0.101-0.113-0.181-0.157   s-0.182-0.084-0.308-0.12c-0.125-0.036-0.27-0.073-0.435-0.114c-0.21-0.053-0.391-0.104-0.542-0.153   c-0.152-0.05-0.275-0.106-0.374-0.174c-0.098-0.067-0.17-0.146-0.214-0.241c-0.046-0.094-0.066-0.208-0.066-0.348   c0-0.174,0.034-0.328,0.104-0.465c0.068-0.136,0.163-0.249,0.284-0.34c0.12-0.092,0.262-0.161,0.425-0.208   c0.162-0.048,0.337-0.07,0.524-0.07c0.264,0,0.508,0.043,0.735,0.127c0.227,0.085,0.419,0.196,0.575,0.335l-0.268,0.354   c-0.146-0.13-0.312-0.227-0.495-0.292c-0.183-0.063-0.369-0.097-0.561-0.097c-0.215,0-0.396,0.046-0.546,0.138   c-0.149,0.091-0.224,0.237-0.224,0.438c0,0.08,0.014,0.147,0.043,0.201s0.077,0.101,0.145,0.14c0.066,0.04,0.152,0.076,0.257,0.107   s0.23,0.064,0.378,0.101c0.231,0.053,0.434,0.107,0.605,0.163c0.172,0.057,0.313,0.122,0.428,0.198   c0.113,0.075,0.199,0.164,0.255,0.267c0.055,0.103,0.083,0.228,0.083,0.375c0,0.325-0.125,0.584-0.375,0.775   S96.585,38.742,96.161,38.742"></path>
      </g>
    </svg>