<svg version="1.1" xmlns="http://www.w3.org/2000/svg" width="322" height="49" viewBox="0 0 216 32.4" xml:space="preserve" fill="#263746"><path d="M213 7.9c1.7 0 3 1.3 3 3s-1.3 3-3 3-3-1.3-3-3 1.3-3 3-3zm0 .5c-1.3 0-2.4 1.1-2.4 2.5s1.1 2.6 2.5 2.6 2.4-1.1 2.4-2.5c-.1-1.5-1.1-2.6-2.5-2.6zm-.6 4.3h-.5V9.3c.3 0 .6-.1 1-.1.5 0 .9.1 1.1.3.2.1.3.4.3.7 0 .4-.3.7-.7.8.3.1.5.3.6.8.1.5.2.7.2.8h-.6c-.1-.1-.2-.4-.2-.9-.1-.4-.3-.6-.7-.6h-.4v1.6zm0-1.9h.4c.4 0 .8-.2.8-.6 0-.3-.2-.6-.8-.6h-.4v1.2zM170.5 24.5c-4.3 0-7.1-1-7.1-5.8v-4.9c0-4.8 2.8-5.8 7.1-5.8h5.9c3.8 0 5.8.4 6.8 1.5.9.9 1.1 2.4 1.1 4.5h-4.8v-.3c0-1.4-1.2-1.6-2.5-1.6h-5.5c-2.7 0-3.2 1.3-3.2 3.4v1.8c0 2.3.4 3.4 3 3.4h5.3c2.2 0 3-.2 3-2.3h4.8v1.4c0 2.5-.7 4.8-5.9 4.8h-8zM69.1 24.4c-1.9 0-3.4-.2-5-1.5-1.3-1-1.3-3.7-1.2-5.4v-2.7c0-1.5 0-4.4 1.7-5.8 1.2-.9 2.4-1 4.3-1h9.3c2.2 0 3.6.1 5.2 1.3 2 1.5 2 4.1 2 5.5v2.5c0 1.8 0 4.6-1.6 5.9-1.1.9-2.9 1.3-5.2 1.3h-9.5zm1.3-12.7c-.5 0-1.2 0-1.7.4-.9.6-1 1.5-1 2.4V18c0 .8 0 1.4.5 2.1.4.4 1.6.7 2.2.7h6.9c.8 0 1.5-.2 1.9-.5.7-.5.8-1.2.8-1.9V14c0-.8-.2-1.3-.7-1.8-.5-.5-1.2-.5-2-.5h-6.9zM87.7 24.4V8h14.8c1.3 0 2.2.1 3.2.8 1.1.8 1.7 1.9 1.7 3.4v2.4c0 1.2-.3 2-1 2.5-.7.4-1.8.8-1.9.8v.2c.2 0 1.8.5 2.3 1.3.5.7.6 1.3.6 2v3.1h-4.8v-2.9c0-.5-.2-.9-.6-1.2-.4-.3-.6-.4-1.1-.4h-8.5v4.4h-4.7zm4.8-8.1h8.3c.6 0 1.1 0 1.6-.5.4-.4.5-.7.5-1.2v-1.2c0-.5 0-.9-.4-1.3s-.9-.4-1.4-.4h-8.6v4.6zM158 24.4l-1.7-3h-10.6l-1.5 3h-5.3L148 8h6.4l9 16.4H158zm-10.6-6.2h7l-3.5-6.5-3.5 6.5zM201.4 24.4v-6.2h-9.7v6.2h-4.9V8h4.9v6.1h9.7V8h5v16.4zM132.8 24.5v-12H132.5l-6.6 12h-3.7l-6.7-12h-.2l-.1.1v11.9h-4.7V8h7.7l5.8 10.9L129.9 8h7.6v16.5zM49.5 24.5V11.9h-7.2V8h19.3v3.9h-7.2v12.6z"/><g><path d="M29.5 2.9C27.7 1 25.3 0 22.6 0H9.3C3.9 0 0 4.3 0 10.3V22c0 6 3.9 10.3 9.3 10.3h13.3c2.6 0 5-1 6.9-2.9 1.8-1.9 2.8-4.5 2.9-7.3V10.3c0-2.8-1-5.5-2.9-7.4zm-17.6 9.2H4.6s-.1 0-.1-.1v-1.6s0-.1.1-.1h9.1L12 12c0 .1-.1.1-.1.1zm15.2-.1c0 .1-.1.1 0 0l-10.2.1h-.1l-1.4 1.4V24.8s0 .1.1.1h.9s.1 0 .1-.1V14l.9-.9h1.4v13.6s0 .1-.1.1H13s-.1 0-.1-.1V12.6v-.1l2.1-2.1h10.1s.1 0 .1-.1v-.9s0-.1-.1-.1H4.6s-.1 0-.1-.1v-.1l1.6-1.6H27s.1 0 .1.1V12zm1.4-4.7h-.2V8h-.1v-.7H28v-.1h.5v.1zm.9.7h-.1v-.5l-.2.3H29l-.2-.3V8h-.1v-.8h.1l.2.5.2-.4h.1V8z"/></g></svg>