<?xml version="1.0" encoding="utf-8"?>
<!-- Generator: Adobe Illustrator 21.1.0, SVG Export Plug-In . SVG Version: 6.00 Build 0)  -->
<svg version="1.1" id="Layer_1" xmlns="http://www.w3.org/2000/svg" xmlns:xlink="http://www.w3.org/1999/xlink" x="0px" y="0px"
	 viewBox="0 0 165.1 108.5" style="enable-background:new 0 0 165.1 108.5;" xml:space="preserve">
<style type="text/css">
	.st0{fill:#D51E25;}
	.st1{fill:#878787;}
	.st2{fill:#999999;}
</style>
<g>
	<path class="st0" d="M18,71.5h3.4v12.3c0,1.1-0.4,2.1-1.2,2.9c-0.8,0.8-1.8,1.2-3,1.2H4.3c-1.2,0-2.2-0.4-3-1.2
		C0.4,85.9,0,85,0,83.8V71.5h3.4v9.7c0,0.3,0.1,0.6,0.2,0.9c0.1,0.3,0.3,0.5,0.6,0.7c0.3,0.2,0.6,0.4,0.9,0.5
		c0.3,0.1,0.7,0.2,1.1,0.2h8.9c0.7,0,1.4-0.2,1.9-0.7c0.6-0.5,0.9-1,0.9-1.6L18,71.5L18,71.5z"/>
	<path class="st0" d="M45.1,87.9H28c-1.2,0-2.2-0.4-3-1.2c-0.8-0.8-1.2-1.8-1.2-2.9V71.5h3.4v9.7c0,0.3,0.1,0.6,0.2,0.9
		c0.1,0.3,0.3,0.5,0.6,0.7c0.3,0.2,0.6,0.4,0.9,0.5c0.3,0.1,0.7,0.2,1.1,0.2h15.1L45.1,87.9L45.1,87.9z"/>
	<path d="M47.5,71.5h17.1c0.6,0,1.2,0.1,1.7,0.3c0.5,0.2,1,0.4,1.4,0.8c0.4,0.4,0.7,0.8,0.9,1.4c0.2,0.5,0.3,1.2,0.3,1.9v1.9
		c0,1.4-0.3,2.4-1,3c-0.7,0.6-1.8,0.9-3.2,0.9H50.9v6.3h-3.4V77.7h17.8v-1.9H47.5V71.5z"/>
	<path d="M71.2,75.6c0-1.1,0.4-2.1,1.2-2.9c0.8-0.8,1.8-1.2,3-1.2h12.8c1.2,0,2.2,0.4,3,1.2c0.8,0.8,1.2,1.7,1.2,2.9v8.2
		c0,1.1-0.4,2.1-1.2,2.9c-0.8,0.8-1.8,1.2-3,1.2H75.5c-1.2,0-2.2-0.4-3-1.2c-0.8-0.8-1.2-1.8-1.2-2.9V75.6z M89.2,78
		c-0.1-0.6-0.4-1.1-0.9-1.5c-0.5-0.4-1.2-0.6-2-0.6h-8.8c-0.8,0-1.5,0.2-2,0.6c-0.5,0.4-0.8,0.9-0.9,1.6v3.2c0,0.3,0.1,0.6,0.2,0.9
		c0.1,0.3,0.3,0.5,0.6,0.7c0.3,0.2,0.6,0.4,0.9,0.5c0.3,0.1,0.7,0.2,1.1,0.2h8.9c0.7,0,1.4-0.2,1.9-0.7c0.6-0.5,0.9-1,0.9-1.6V78z"
		/>
	<path d="M116.3,71.5v16.4h-4.8l-5.7-11.4l-6.1,11.4H95V71.5h3.4v12.1l6.2-12.1h2.3l6.1,12.1V71.5H116.3z"/>
	<path d="M118.7,75.6c0-1.1,0.4-2.1,1.2-2.9c0.8-0.8,1.8-1.2,3-1.2h17.1v4.3h-21.3C118.7,75.9,118.7,75.6,118.7,75.6z M140.1,87.9
		H123c-1.2,0-2.2-0.4-3-1.2c-0.8-0.8-1.2-1.8-1.2-2.9v-6.1h21.3v3.9h-17.9v1.9h17.9V87.9z"/>
	<path d="M145.9,81.6v6.3h-3.4V77.7h17.8v-1.9h-17.8v-4.3h17.1c0.6,0,1.2,0.1,1.7,0.3c0.5,0.2,1,0.4,1.4,0.8
		c0.4,0.4,0.7,0.8,0.9,1.4c0.2,0.5,0.3,1.2,0.3,1.9v1.9c0,1.4-0.3,2.4-1,3s-1.8,0.9-3.2,0.9l4.3,6.3h-3.7l-4.3-6.3H145.9z"/>
</g>
<g>
	<path class="st1" d="M5.2,96.9h-2l1.1-2h1.6l4.1,7.6H8.5l-1.7-2.9H3.6l-1.8,2.9H0.2l2.5-4.7h3L5.2,96.9z"/>
	<path class="st1" d="M15.4,96.8c0-0.5,0.2-1,0.6-1.3c0.4-0.4,0.8-0.6,1.4-0.6h7.9v2h-9.9V96.8z M25.2,102.5h-7.9
		c-0.5,0-1-0.2-1.4-0.5c-0.4-0.4-0.6-0.8-0.6-1.3v-2.8h9.9v1.8h-8.3v0.9h8.3V102.5z"/>
	<path class="st1" d="M32.1,99.6v2.9h-1.6v-4.7h8.2v-0.9h-8.2v-2h7.9c0.3,0,0.5,0,0.8,0.1c0.2,0.1,0.4,0.2,0.6,0.4
		c0.2,0.2,0.3,0.4,0.4,0.6c0.1,0.3,0.2,0.5,0.2,0.9v0.9c0,0.7-0.2,1.1-0.5,1.4c-0.3,0.3-0.8,0.4-1.5,0.4l2,2.9h-1.7l-2-2.9
		L32.1,99.6L32.1,99.6z"/>
	<path class="st1" d="M45.7,96.8c0-0.5,0.2-1,0.6-1.3c0.4-0.4,0.8-0.6,1.4-0.6h5.9c0.5,0,1,0.2,1.4,0.6c0.4,0.4,0.6,0.8,0.6,1.3v3.8
		c0,0.5-0.2,1-0.6,1.3c-0.4,0.4-0.8,0.5-1.4,0.5h-5.9c-0.5,0-1-0.2-1.4-0.5c-0.4-0.4-0.6-0.8-0.6-1.3
		C45.7,100.6,45.7,96.8,45.7,96.8z M54,97.9c0-0.3-0.2-0.5-0.4-0.7s-0.6-0.3-0.9-0.3h-4.1c-0.4,0-0.7,0.1-0.9,0.3
		c-0.2,0.2-0.4,0.4-0.4,0.7v1.5c0,0.1,0,0.3,0.1,0.4c0.1,0.1,0.2,0.2,0.3,0.3s0.3,0.2,0.4,0.2s0.3,0.1,0.5,0.1h4.1
		c0.4,0,0.7-0.1,1-0.3c0.3-0.2,0.4-0.5,0.4-0.8L54,97.9L54,97.9z"/>
	<path class="st1" d="M71.3,96.8c0-0.5,0.2-1,0.6-1.3c0.4-0.4,0.8-0.6,1.4-0.6h7.9v2h-9.9V96.8z M81.2,102.5h-7.9
		c-0.5,0-1-0.2-1.4-0.5c-0.4-0.4-0.6-0.8-0.6-1.3v-2.8h9.9v1.8h-8.3v0.9h8.3C81.2,100.5,81.2,102.5,81.2,102.5z"/>
	<path class="st1" d="M88.1,94.9l6.7,5.5v-5.5h1.6v7.6h-1.6l-6.7-5.6h-1.6v-2H88.1z M86.5,97.8h1.6v4.7h-1.6V97.8z"/>
	<path class="st1" d="M111.5,100.6c0,0.5-0.2,1-0.6,1.3c-0.4,0.4-0.8,0.5-1.4,0.5h-5.9c-0.5,0-1-0.2-1.4-0.5
		c-0.4-0.4-0.6-0.8-0.6-1.3v-3.8c0-0.5,0.2-1,0.6-1.3c0.4-0.4,0.8-0.6,1.4-0.6h7.9v2h-7c-0.4,0-0.7,0.1-0.9,0.3
		c-0.2,0.2-0.4,0.4-0.4,0.7v1.5c0,0.1,0,0.3,0.1,0.4c0.1,0.1,0.2,0.2,0.3,0.3s0.3,0.2,0.4,0.2s0.3,0.1,0.5,0.1h4.1
		c0.3,0,0.6-0.1,0.8-0.3c0.2-0.2,0.4-0.4,0.4-0.6h-5.2v-1.8h6.8L111.5,100.6L111.5,100.6z"/>
	<path class="st1" d="M116.8,102.5v-7.6h1.6v7.6H116.8z"/>
	<path class="st1" d="M125.3,94.9l6.7,5.5v-5.5h1.6v7.6H132l-6.7-5.6h-1.6v-2L125.3,94.9L125.3,94.9z M123.7,97.8h1.6v4.7h-1.6V97.8
		z"/>
	<path class="st1" d="M138.9,96.8c0-0.5,0.2-1,0.6-1.3c0.4-0.4,0.8-0.6,1.4-0.6h7.9v2h-9.9V96.8z M148.8,102.5h-7.9
		c-0.5,0-1-0.2-1.4-0.5c-0.4-0.4-0.6-0.8-0.6-1.3v-2.8h9.9v1.8h-8.3v0.9h8.3V102.5z"/>
	<path class="st1" d="M154.1,97.3v-0.5c0-0.5,0.2-1,0.6-1.3c0.4-0.4,0.8-0.6,1.4-0.6h7.9v2h-8.3v0.9h6.3c0.7,0,1.2,0.1,1.5,0.4
		s0.5,0.7,0.5,1.4v0.9c0,0.3-0.1,0.6-0.1,0.9c-0.1,0.2-0.2,0.5-0.4,0.6s-0.4,0.3-0.6,0.4c-0.2,0.1-0.5,0.1-0.8,0.1h-7.9v-2h8.2v-0.9
		H156c-0.6,0-1.1-0.2-1.4-0.5c-0.3-0.3-0.5-0.7-0.5-1.3L154.1,97.3L154.1,97.3z"/>
</g>
<path class="st2" d="M4.3,7.4c0,0,113.5-8.1,147.5,3.6S144,42.8,144,42.8s-29.2,12.4-15.1-0.1s3.6-21.2-10.2-25.1S77.5,7.3,4.3,7.4z
	"/>
<g>
	<rect x="93.4" y="1.4" class="st2" width="19.7" height="35.6"/>
	<path class="st2" d="M54,1.3V45c0,0-0.7,13.1,14.7,15.5h44.3V44.6H76.8c0,0-2.5-0.1-3.2-3.4V1.3H54z"/>
</g>
<g>
	<rect x="92" y="0.1" class="st0" width="19.7" height="35.6"/>
	<path class="st0" d="M52.7,0v43.7c0,0-0.7,13.1,14.7,15.5h44.3V43.3H75.4c0,0-2.5-0.1-3.2-3.4V0H52.7z"/>
</g>
<rect x="0" y="64.2" width="164" height="1.3"/>
<rect x="0" y="107.2" width="164" height="1.3"/>
</svg>
