<?xml version="1.0" encoding="utf-8"?>
<!-- Generator: Adobe Illustrator 25.3.1, SVG Export Plug-In . SVG Version: 6.00 Build 0)  -->
<svg version="1.1" id="Layer_1" xmlns="http://www.w3.org/2000/svg" xmlns:xlink="http://www.w3.org/1999/xlink" x="0px" y="0px"
	 viewBox="0 0 174.32 62.49" style="enable-background:new 0 0 174.32 62.49;" xml:space="preserve">
<style type="text/css">
	.st0{fill:#0E6CF1;}
	.st1{fill:#2437BF;}
</style>
<g>
	<g>
		<polygon class="st0" points="15.22,26 6.13,38.66 12.88,38.66 18.8,30.79 		"/>
		<polygon class="st0" points="37.93,33.19 27.44,19.3 37.87,5.47 33.8,0.06 23.65,14.22 12.99,0 6.19,0 33.86,38.6 		"/>
		<polygon class="st1" points="25.88,0 20.02,7.75 23.65,12.55 32.69,0 		"/>
		<polygon class="st1" points="25.94,38.66 32.74,38.66 5.02,0.06 1,5.47 11.38,19.3 1,33.08 4.96,38.6 15.17,24.32 		"/>
		<path class="st0" d="M47.36,31.13c-3.17,0.06-6.22-1.24-8.37-3.57c-1-1.1-1.78-2.39-2.29-3.79c-1.69-4.4-0.78-9.37,2.34-12.89
			c1.02-1.09,2.26-1.97,3.63-2.57c1.47-0.67,3.07-1,4.69-0.95c3.17-0.06,6.22,1.24,8.37,3.57c1.02,1.1,1.81,2.39,2.34,3.79
			c0.56,1.46,0.84,3.01,0.84,4.57c0.01,1.55-0.28,3.08-0.84,4.52c-1.1,2.83-3.26,5.11-6.02,6.36C50.56,30.8,48.97,31.13,47.36,31.13
			z M39.77,19.3c-0.02,1.15,0.19,2.28,0.61,3.35c0.36,0.99,0.91,1.9,1.62,2.68c0.69,0.73,1.5,1.34,2.4,1.79
			c1.87,0.89,4.04,0.89,5.91,0c0.93-0.45,1.77-1.07,2.45-1.84c0.73-0.79,1.28-1.72,1.62-2.73c0.4-1.07,0.6-2.2,0.61-3.35
			c0.02-1.13-0.19-2.25-0.61-3.29c-0.4-0.99-0.94-1.91-1.62-2.73c-0.68-0.78-1.52-1.41-2.45-1.84c-0.92-0.44-1.93-0.67-2.96-0.67
			c-1.02-0.01-2.04,0.22-2.96,0.67c-0.91,0.45-1.73,1.07-2.4,1.84c-0.71,0.8-1.26,1.73-1.62,2.73C40,16.99,39.79,18.14,39.77,19.3z"
			/>
		<path class="st0" d="M95.78,30.68h-3.85V17.85c0-2.4-0.39-4.18-1.17-5.3c-0.78-1.13-2.09-1.78-3.46-1.73
			c-1.57,0.01-3.08,0.61-4.24,1.67c-1.27,1.18-2.2,2.68-2.68,4.35v13.83h-3.85V17.85c0-2.45-0.39-4.24-1.12-5.36
			c-0.77-1.1-2.06-1.73-3.4-1.67c-1.55,0.01-3.03,0.59-4.18,1.62c-1.34,1.16-2.29,2.69-2.73,4.41v13.83h-3.85V7.81h3.51v4.91
			c0.84-1.6,2.09-2.95,3.63-3.9c1.51-0.93,3.25-1.42,5.02-1.39c1.67-0.11,3.32,0.45,4.57,1.56c1.14,1.05,1.87,2.47,2.06,4.02
			c2.06-3.74,4.96-5.58,8.7-5.58c1.14-0.04,2.27,0.21,3.29,0.73c0.88,0.46,1.62,1.15,2.12,2.01c0.57,0.94,0.95,1.98,1.12,3.07
			c0.22,1.25,0.34,2.52,0.33,3.79L95.78,30.68L95.78,30.68z"/>
		<path class="st0" d="M109.95,31.13c-1.63,0.02-3.25-0.3-4.74-0.95c-1.39-0.6-2.64-1.47-3.68-2.57c-1.03-1.1-1.85-2.39-2.4-3.79
			c-1.12-2.95-1.12-6.2,0-9.15c1.75-4.43,6.06-7.32,10.82-7.25c4.71-0.06,8.95,2.84,10.6,7.25c0.56,1.4,0.83,2.9,0.78,4.41v0.89
			c0,0.22-0.06,0.39-0.06,0.61H102.3c0.07,1.08,0.33,2.14,0.78,3.12c0.41,0.91,1,1.72,1.73,2.4c0.68,0.68,1.5,1.22,2.4,1.56
			c0.9,0.38,1.87,0.57,2.84,0.56c0.7-0.01,1.39-0.11,2.06-0.28c0.66-0.18,1.3-0.44,1.9-0.78c0.56-0.33,1.09-0.72,1.56-1.17
			c0.43-0.45,0.78-0.98,1-1.56l3.35,0.95c-0.4,0.86-0.92,1.65-1.56,2.34c-0.67,0.72-1.44,1.34-2.29,1.84
			c-0.9,0.55-1.88,0.96-2.9,1.23C112.11,30.99,111.03,31.11,109.95,31.13z M117.81,17.74c-0.12-2.04-1.02-3.96-2.51-5.36
			c-2.2-2.02-5.37-2.6-8.14-1.51c-0.89,0.36-1.71,0.89-2.4,1.56c-0.71,0.66-1.28,1.46-1.67,2.34c-0.42,0.94-0.69,1.93-0.78,2.96
			L117.81,17.74z"/>
		<path class="st0" d="M136.11,29.51l-0.89,0.45c-0.39,0.17-0.84,0.33-1.28,0.5c-0.45,0.17-1.04,0.28-1.56,0.39
			c-0.59,0.11-1.19,0.17-1.79,0.17c-1.31,0.03-2.59-0.38-3.63-1.17c-1.07-0.87-1.65-2.2-1.56-3.57V10.82h-3.12V7.81h3.12V0.17h3.85
			v7.64h5.13v3.01h-5.13v14.17c-0.02,0.71,0.29,1.39,0.84,1.84c0.5,0.37,1.11,0.57,1.73,0.56c0.71,0.01,1.41-0.12,2.06-0.39
			c0.45-0.15,0.88-0.35,1.28-0.61L136.11,29.51z"/>
		<path class="st0" d="M150.67,11.16c-1.8,0.02-3.56,0.54-5.08,1.51c-1.46,0.9-2.56,2.28-3.12,3.9v14.11h-3.85V7.81h3.57v5.3
			c0.73-1.51,1.8-2.82,3.12-3.85c1.17-0.93,2.58-1.51,4.07-1.67h0.73c0.17-0.01,0.34,0.01,0.5,0.06L150.67,11.16L150.67,11.16z"/>
		<path class="st0" d="M157.08,35.03c0.37,0.07,0.74,0.1,1.12,0.11c0.39,0,0.67,0.06,0.89,0.06c0.86,0.06,1.67-0.43,2.01-1.23
			c0.51-1.07,0.95-2.17,1.34-3.29l-9.65-22.87h3.96l7.81,19.41l7.08-19.41h3.68l-10.43,27c-0.42,1.05-1.11,1.98-2.01,2.68
			c-1.13,0.82-2.51,1.24-3.9,1.17c-0.28,0.01-0.56-0.01-0.84-0.06l-1-0.17L157.08,35.03z"/>
		<path class="st0" d="M168.51,31.35c0-0.6,0.32-1.15,0.84-1.45c0.25-0.15,0.54-0.22,0.84-0.22c0.92,0,1.67,0.75,1.67,1.67
			c0,0.29-0.07,0.57-0.21,0.83c-0.3,0.53-0.86,0.85-1.46,0.85c-0.6,0-1.16-0.32-1.46-0.85C168.59,31.92,168.51,31.64,168.51,31.35z
			 M168.79,31.35c-0.01,0.77,0.61,1.39,1.38,1.4c0.01,0,0.01,0,0.02,0c0.25,0,0.49-0.06,0.71-0.19c0.21-0.12,0.39-0.3,0.51-0.51
			c0.12-0.21,0.19-0.45,0.18-0.7c0-0.24-0.06-0.49-0.18-0.7c-0.12-0.21-0.3-0.39-0.51-0.51c-0.43-0.25-0.96-0.25-1.39,0
			c-0.21,0.12-0.39,0.3-0.51,0.51C168.86,30.86,168.79,31.11,168.79,31.35z M170.87,30.95c0.02,0.23-0.12,0.44-0.34,0.52l0.56,0.89
			h-0.5l-0.42-0.77h-0.2v0.76h-0.42v-2.01h0.56c0.2-0.01,0.39,0.04,0.56,0.15C170.79,30.61,170.87,30.78,170.87,30.95z
			 M169.96,31.27h0.16c0.09,0.01,0.18-0.02,0.25-0.08c0.06-0.06,0.09-0.14,0.08-0.22c0.01-0.08-0.02-0.16-0.08-0.22
			c-0.08-0.05-0.17-0.07-0.26-0.07h-0.15V31.27z"/>
	</g>
	<g>
		<path class="st0" d="M23.11,52.01L21,59.44h-1.19l-1.46-4.73c-0.04-0.12-0.08-0.26-0.12-0.41c-0.04-0.15-0.08-0.29-0.12-0.43
			c-0.04-0.14-0.07-0.27-0.1-0.39c-0.03-0.12-0.04-0.2-0.05-0.26c-0.01,0.06-0.02,0.15-0.05,0.26c-0.02,0.11-0.05,0.24-0.08,0.38
			s-0.07,0.29-0.11,0.43c-0.04,0.15-0.08,0.29-0.12,0.42l-1.43,4.72h-1.18l-2.1-7.43h1.14l1.22,4.51c0.04,0.15,0.08,0.3,0.12,0.46
			s0.07,0.31,0.11,0.46c0.03,0.15,0.06,0.3,0.09,0.45s0.05,0.28,0.07,0.41c0.02-0.13,0.04-0.27,0.07-0.42
			c0.03-0.15,0.06-0.3,0.1-0.46c0.03-0.16,0.07-0.31,0.11-0.46c0.04-0.15,0.08-0.3,0.13-0.44l1.37-4.5h1.12l1.42,4.52
			c0.04,0.14,0.09,0.29,0.13,0.45c0.04,0.16,0.08,0.31,0.12,0.47c0.03,0.16,0.07,0.3,0.09,0.45s0.05,0.27,0.07,0.4
			c0.03-0.17,0.06-0.35,0.1-0.55s0.08-0.4,0.13-0.61c0.05-0.21,0.1-0.42,0.15-0.62l1.22-4.5H23.11z"/>
		<path class="st0" d="M30.5,59.44h-1.12v-3.43h-3.94v3.43h-1.12v-7.43h1.12v3.1h3.94v-3.1h1.12V59.44z"/>
		<path class="st0" d="M37.02,59.44h-4.49v-7.43h4.49v0.89h-3.37v2.21h3.17V56h-3.17v2.54h3.37V59.44z"/>
		<path class="st0" d="M40.8,52.01c0.67,0,1.23,0.08,1.67,0.23c0.44,0.15,0.77,0.39,0.98,0.7s0.32,0.71,0.32,1.19
			c0,0.38-0.07,0.7-0.22,0.96s-0.35,0.47-0.59,0.64c-0.24,0.17-0.5,0.3-0.78,0.39l2.24,3.31h-1.29l-1.95-3.04h-1.47v3.04H38.6v-7.43
			H40.8z M40.73,52.9h-1.01v2.64h1.09c0.63,0,1.09-0.11,1.38-0.34c0.29-0.23,0.44-0.57,0.44-1.01c0-0.46-0.16-0.79-0.46-0.99
			S41.37,52.9,40.73,52.9z"/>
		<path class="st0" d="M50.12,59.44h-4.49v-7.43h4.49v0.89h-3.37v2.21h3.17V56h-3.17v2.54h3.37V59.44z"/>
		<path class="st0" d="M53.68,52.01h2.49c1.13,0,1.96,0.15,2.47,0.45c0.51,0.3,0.77,0.78,0.77,1.43c0,0.44-0.11,0.81-0.34,1.09
			c-0.22,0.29-0.52,0.46-0.89,0.51v0.05c0.51,0.11,0.87,0.3,1.1,0.59c0.22,0.29,0.34,0.67,0.34,1.15c0,0.68-0.26,1.21-0.79,1.58
			c-0.53,0.38-1.24,0.57-2.15,0.57h-2.99V52.01z M55.37,54.96h0.98c0.46,0,0.79-0.07,1-0.2c0.21-0.13,0.31-0.35,0.31-0.66
			c0-0.28-0.11-0.49-0.34-0.61c-0.22-0.12-0.58-0.19-1.06-0.19h-0.89V54.96z M55.37,56.21v1.94h1.11c0.47,0,0.81-0.08,1.03-0.25
			s0.33-0.42,0.33-0.76c0-0.62-0.47-0.92-1.42-0.92H55.37z"/>
		<path class="st0" d="M61.17,59.44v-7.43h1.7v7.43H61.17z"/>
		<path class="st0" d="M67.82,55.27h3.17v3.85c-0.51,0.16-1,0.27-1.45,0.33s-0.92,0.09-1.39,0.09c-1.21,0-2.13-0.33-2.77-0.99
			s-0.95-1.61-0.95-2.84c0-1.2,0.37-2.13,1.11-2.8c0.74-0.67,1.76-1.01,3.07-1.01c0.82,0,1.61,0.15,2.37,0.46l-0.56,1.26
			c-0.58-0.27-1.19-0.41-1.82-0.41c-0.73,0-1.32,0.23-1.76,0.69s-0.66,1.07-0.66,1.84c0,0.81,0.18,1.42,0.53,1.85
			c0.36,0.43,0.87,0.64,1.55,0.64c0.35,0,0.71-0.03,1.08-0.1v-1.55h-1.52V55.27z"/>
		<path class="st0" d="M75.05,59.44v-7.43h1.7v7.43H75.05z"/>
		<path class="st0" d="M85.29,55.66c0,1.22-0.37,2.16-1.12,2.81c-0.75,0.65-1.83,0.98-3.25,0.98h-2.26v-7.43h2.51
			c1.31,0,2.32,0.32,3.04,0.96C84.93,53.62,85.29,54.51,85.29,55.66z M83.53,55.7c0-1.6-0.76-2.39-2.28-2.39h-0.9v4.84h0.73
			C82.72,58.14,83.53,57.33,83.53,55.7z"/>
		<path class="st0" d="M91.44,59.44h-4.61v-7.43h4.61v1.29h-2.91v1.63h2.71v1.29h-2.71v1.92h2.91V59.44z"/>
		<path class="st0" d="M98.25,59.44l-0.58-1.77h-2.92l-0.58,1.77h-1.83l2.82-7.46h2.07l2.83,7.46H98.25z M97.26,56.35
			c-0.54-1.6-0.84-2.51-0.91-2.72c-0.07-0.21-0.12-0.38-0.15-0.5c-0.12,0.43-0.46,1.51-1.03,3.22H97.26z"/>
		<path class="st0" d="M106.09,57.38c0,0.67-0.26,1.2-0.78,1.58c-0.52,0.39-1.24,0.58-2.17,0.58c-0.85,0-1.61-0.15-2.26-0.45v-1.46
			c0.54,0.22,1,0.38,1.37,0.47c0.37,0.09,0.72,0.14,1.03,0.14c0.37,0,0.66-0.07,0.86-0.2c0.2-0.13,0.3-0.33,0.3-0.59
			c0-0.15-0.04-0.28-0.13-0.39c-0.09-0.11-0.22-0.22-0.38-0.33c-0.17-0.11-0.52-0.27-1.04-0.5c-0.49-0.21-0.86-0.42-1.1-0.61
			s-0.44-0.42-0.58-0.69c-0.15-0.26-0.22-0.57-0.22-0.91c0-0.66,0.24-1.17,0.72-1.55c0.48-0.38,1.14-0.56,1.99-0.56
			c0.42,0,0.81,0.05,1.19,0.14c0.38,0.09,0.77,0.22,1.18,0.39l-0.55,1.22c-0.43-0.16-0.78-0.28-1.06-0.34
			c-0.28-0.06-0.55-0.1-0.82-0.1c-0.32,0-0.57,0.07-0.74,0.21c-0.17,0.14-0.26,0.32-0.26,0.54c0,0.14,0.03,0.26,0.1,0.36
			s0.18,0.2,0.33,0.3s0.51,0.27,1.08,0.52c0.75,0.33,1.26,0.67,1.54,1C105.95,56.49,106.09,56.9,106.09,57.38z"/>
		<path class="st0" d="M115.01,59.44l-0.89-2.21h-3.13l-0.88,2.21h-1.17l3.05-7.46h1.15l3.04,7.46H115.01z M113.81,56.33l-0.84-2.19
			c-0.03-0.08-0.06-0.19-0.12-0.34c-0.05-0.15-0.11-0.3-0.16-0.46c-0.05-0.16-0.1-0.29-0.13-0.4c-0.04,0.14-0.08,0.29-0.13,0.44
			c-0.05,0.15-0.09,0.3-0.14,0.43s-0.08,0.24-0.11,0.32l-0.85,2.19H113.81z"/>
		<path class="st0" d="M119.53,52.01c0.67,0,1.23,0.08,1.67,0.23c0.44,0.15,0.77,0.39,0.98,0.7s0.32,0.71,0.32,1.19
			c0,0.38-0.07,0.7-0.22,0.96s-0.35,0.47-0.59,0.64c-0.24,0.17-0.5,0.3-0.78,0.39l2.24,3.31h-1.29l-1.95-3.04h-1.47v3.04h-1.12
			v-7.43H119.53z M119.46,52.9h-1.01v2.64h1.09c0.63,0,1.09-0.11,1.38-0.34c0.29-0.23,0.44-0.57,0.44-1.01
			c0-0.46-0.16-0.79-0.46-0.99S120.11,52.9,119.46,52.9z"/>
		<path class="st0" d="M128.85,59.44h-4.49v-7.43h4.49v0.89h-3.37v2.21h3.17V56h-3.17v2.54h3.37V59.44z"/>
		<path class="st0" d="M132.38,52.01h2.49c1.13,0,1.96,0.15,2.47,0.45c0.51,0.3,0.77,0.78,0.77,1.43c0,0.44-0.11,0.81-0.34,1.09
			c-0.22,0.29-0.52,0.46-0.89,0.51v0.05c0.51,0.11,0.87,0.3,1.1,0.59c0.22,0.29,0.34,0.67,0.34,1.15c0,0.68-0.26,1.21-0.79,1.58
			c-0.53,0.38-1.24,0.57-2.15,0.57h-2.99V52.01z M134.07,54.96h0.98c0.46,0,0.79-0.07,1-0.2c0.21-0.13,0.31-0.35,0.31-0.66
			c0-0.28-0.11-0.49-0.34-0.61c-0.22-0.12-0.58-0.19-1.06-0.19h-0.89V54.96z M134.07,56.21v1.94h1.11c0.47,0,0.81-0.08,1.03-0.25
			s0.33-0.42,0.33-0.76c0-0.62-0.47-0.92-1.42-0.92H134.07z"/>
		<path class="st0" d="M146.33,52.01v4.81c0,0.55-0.13,1.03-0.4,1.44c-0.26,0.41-0.65,0.73-1.15,0.95c-0.5,0.22-1.09,0.33-1.77,0.33
			c-1.03,0-1.83-0.24-2.4-0.73c-0.57-0.49-0.85-1.16-0.85-2.01v-4.79h1.69v4.55c0,0.57,0.12,0.99,0.37,1.26s0.66,0.4,1.23,0.4
			c0.55,0,0.96-0.13,1.21-0.4c0.25-0.27,0.38-0.69,0.38-1.27v-4.54H146.33z"/>
		<path class="st0" d="M148.21,59.44v-7.43h1.7v7.43H148.21z"/>
		<path class="st0" d="M151.82,59.44v-7.43h1.7v6.13h3.24v1.3H151.82z"/>
		<path class="st0" d="M160.44,59.44h-1.7v-6.12h-2.17v-1.31h6.04v1.31h-2.17V59.44z"/>
	</g>
</g>
</svg>
